<?xml version="1.0" encoding="UTF-8" standalone="no"?>
<!DOCTYPE svg PUBLIC "-//W3C//DTD SVG 1.1//EN" "http://www.w3.org/Graphics/SVG/1.1/DTD/svg11.dtd">
<svg width="100%" height="100%" viewBox="0 0 352 174" version="1.1" xmlns="http://www.w3.org/2000/svg" xmlns:xlink="http://www.w3.org/1999/xlink" xml:space="preserve" xmlns:serif="http://www.serif.com/" style="fill-rule:evenodd;clip-rule:evenodd;stroke-linejoin:round;stroke-miterlimit:2;">
    <g transform="matrix(1,0,0,1,-30,-392)">
        <g transform="matrix(0.978346,0.206978,-0.206978,0.978346,108.959,-149.358)">
            <path d="M135.175,374.802C84.751,350.538 4.238,415.608 57.364,483.49C102.904,541.681 216.16,474.143 144.314,451.392C122.632,444.526 75.886,440.79 99.213,425.794C101.323,424.438 190.163,402.296 135.175,374.802Z" style="fill:rgb(233,174,0);"/>
            <path d="M104.178,432.545C107.031,433.687 110.908,435.122 114.304,435.976C125.064,438.68 137.929,440.978 146.729,443.765C164.984,449.546 173.01,458.631 175.021,467.231C177.187,476.488 172.915,486.739 163.127,495.3C151.257,505.682 131.084,513.885 110.047,514.516C88.624,515.158 66.448,508.079 51.063,488.421C34.54,467.308 29.903,446.364 32.663,427.85C36.81,400.042 58.005,377.391 83.112,367.323C101.353,360.01 121.53,359.358 138.644,367.594C138.68,367.611 138.717,367.629 138.753,367.647C152.775,374.658 158.773,382.14 160.476,388.448C162.561,396.168 159.449,403.727 152.213,410.201C139.579,421.504 112.668,429.849 104.178,432.545ZM131.652,381.985L131.608,381.964C118.488,375.692 103.038,376.572 89.067,382.174C69.031,390.208 51.797,408.018 48.488,430.21C46.278,445.03 50.436,461.658 63.664,478.56C75.604,493.817 92.941,499.021 109.568,498.523C126.581,498.013 142.994,491.653 152.594,483.256C157.137,479.283 160.447,475.172 159.442,470.875C159.002,468.993 157.635,467.296 155.558,465.627C152.429,463.114 147.917,460.924 141.899,459.019C131.288,455.658 114.665,453.052 103.212,449.502C96.852,447.53 91.854,445.062 89.094,442.471L87.009,440.059L85.403,436.795L84.86,432.857L85.628,429.04C86.686,426.196 89.333,422.636 94.887,419.065C95.24,418.838 96.963,418.04 99.832,417.144C106.375,415.099 122.657,410.173 134.561,403.198C137.769,401.318 140.643,399.312 142.747,397.121C143.93,395.888 144.949,394.719 145.095,393.339C145.209,392.258 144.504,391.269 143.478,390.094C141.157,387.436 137.282,384.805 131.652,381.985Z" style="fill:rgb(233,174,0);"/>
        </g>
        <g transform="matrix(1,0,0,1,13.6585,-34.1461)">
            <path d="M102.795,567.84C76.499,556.081 46.372,513.447 44.799,489.848C41.824,445.223 83.102,443.107 102.173,459.998C130.844,485.393 135.125,494.801 167.3,473.566C199.14,452.552 209.347,440.222 265.378,441.778C297.011,442.657 291.008,454.79 318.487,470.465C336.892,480.963 319.885,500.622 332.055,528.614C337.564,541.283 357.29,571.478 307.633,586.375C260.655,600.469 221.369,560.917 202.577,560.402C131.369,558.451 129.091,579.599 102.795,567.84Z" style="fill:rgb(82,143,110);"/>
            <path d="M99.529,575.143C82.572,567.56 63.935,548.231 51.532,528.343C43.027,514.706 37.512,500.815 36.817,490.38C35.37,468.677 43.212,455.513 53.812,448.52C69.765,437.996 93.517,441.645 107.477,454.009C115.911,461.479 122.182,467.551 127.695,471.811C131.783,474.97 135.168,477.084 139.143,477.288C145.265,477.602 152.085,474.022 162.893,466.889C196.218,444.894 206.955,432.152 265.6,433.781C284.301,434.301 291.767,438.494 298.729,444.527C304.33,449.381 309.382,456.061 322.451,463.516C332.817,469.429 335.476,477.256 335.707,487.222C335.934,497.055 332.628,509.868 339.392,525.424C341.515,530.307 345.53,537.654 347.422,545.761C348.933,552.233 349.149,559.124 346.833,565.859C343.265,576.231 333.469,586.977 309.931,594.038C279.498,603.168 251.977,591.91 230.508,580.951C222.744,576.989 215.852,573.122 209.99,570.63C207.075,569.392 204.546,568.459 202.358,568.399C160.903,567.263 143.53,574.228 130.749,577.491C120.193,580.186 112.174,580.797 99.529,575.143ZM106.061,560.537C117.053,565.452 123.021,563.083 133.686,560.095C146.899,556.395 165.922,551.395 202.796,552.405C211.078,552.632 223.178,559.246 237.782,566.701C256.081,576.041 279.393,586.495 305.334,578.713C321.535,573.852 329.247,567.795 331.703,560.655C333.373,555.797 332.426,550.805 330.979,546.314C329.118,540.533 326.293,535.424 324.719,531.804C318.024,516.406 319.144,503.326 319.617,492.626C319.901,486.203 320.6,480.88 314.523,477.414C302.732,470.688 296.667,464.596 291.487,459.616C285.477,453.837 280.904,450.212 265.156,449.775C211.739,448.291 202.061,460.209 171.706,480.243C156.769,490.102 146.784,493.701 138.323,493.267C132.57,492.972 127.288,490.955 121.641,487.171C114.983,482.71 107.542,475.441 96.868,465.987C87.943,458.081 72.823,455.147 62.622,461.876C55.783,466.388 51.848,475.312 52.781,489.316C53.344,497.761 58.225,508.839 65.108,519.876C75.786,536.997 91.462,554.009 106.061,560.537Z" style="fill:rgb(82,143,110);"/>
        </g>
        <g transform="matrix(1.02527,0,0,0.998194,-109.249,42.0521)">
            <path d="M370.323,466.116C371.316,463.534 369.592,459.449 366.45,460.446C362.471,461.71 359.461,464.174 363.746,467.622C366.566,469.892 369.496,468.266 370.323,466.116Z" style="fill:rgb(108,209,150);"/>
            <path d="M377.58,469.061L376.345,471.436L374.683,473.422L372.621,475.018L370.165,476.158L367.368,476.707L364.394,476.521L361.504,475.56L358.933,473.931L356.095,471.013L354.584,468.275L353.9,465.394L354.066,462.318L355.27,459.158L357.84,456.102C359.395,454.775 361.632,453.587 364.146,452.789L367.224,452.28L370.384,452.725L373.129,454.035L375.207,455.85L377.194,458.911L378.191,462.108L378.372,465.465L377.58,469.061ZM367.853,468.297C368.249,467.75 369.174,466.411 369.336,465.623C369.505,464.8 369.515,463.935 369.297,463.032C369.189,462.583 369.226,461.851 368.559,461.314C367.746,460.66 366.87,460.643 366.133,460.732C364.694,460.905 363.532,461.96 363.066,463.172C362.065,465.773 364.741,468.651 367.853,468.297Z" style="fill:rgb(108,209,150);"/>
        </g>
        <g transform="matrix(0.703978,0.19244,-0.187154,0.723861,147.5,182.903)">
            <path d="M217.43,303.9C212.791,318.528 228.848,314.032 230.435,313.599C231.872,313.208 250.584,301.469 256.266,305.527C261.813,309.489 246.205,326.895 248.502,334.072C256.495,359.05 280.64,326.996 262.718,334.524C257.728,336.62 252.435,328.186 256.142,324.272C262.174,317.906 278.156,315.193 278.655,298.222C279.175,280.52 222.681,287.339 217.43,303.9Z" style="fill:rgb(108,209,150);"/>
            <path d="M274.51,324.772L275.509,325.306L278.041,327.967L279.571,331.073L280.148,334.518L279.644,338.479L278.551,341.334L276.432,344.736C275.214,346.339 273.645,347.959 271.829,349.383C269.531,351.184 266.846,352.658 264.036,353.531L260.715,354.278L257.033,354.448C250.383,354.12 242.295,350.707 238.033,337.39L237.363,333.974L237.378,330.978C237.564,328.854 238.158,326.44 239.122,323.887C239.545,322.765 240.05,321.596 240.601,320.404C240.069,320.655 239.596,320.888 239.206,321.097C236.097,322.762 233.809,323.75 233.249,323.903C232.049,324.23 225.468,325.872 219.926,325L216.962,324.307L213.743,322.931L209.537,319.567L206.829,315.163L205.693,310.278C205.489,307.808 205.744,304.705 206.961,300.866C208.576,295.772 212.599,290.86 218.809,286.992C228.824,280.755 245.401,276.881 259.174,277.104C268.389,277.254 276.384,279.362 281.346,282.758L284.597,285.491L287.338,289.135L289.114,293.587L289.613,298.382C289.242,310.989 283.21,318.346 276.061,323.688C275.553,324.068 275.034,324.428 274.51,324.772ZM266.919,301.899C267.156,301.323 267.346,300.702 267.48,300.029C266.962,299.892 266.291,299.721 265.528,299.544L266.628,301.055L266.919,301.899Z" style="fill:rgb(108,209,150);"/>
        </g>
    </g>
</svg>
