<?xml version="1.0" encoding="UTF-8" standalone="no"?>
<!DOCTYPE svg PUBLIC "-//W3C//DTD SVG 1.1//EN" "http://www.w3.org/Graphics/SVG/1.1/DTD/svg11.dtd">
<svg width="100%" height="100%" viewBox="0 0 352 165" version="1.1" xmlns="http://www.w3.org/2000/svg" xmlns:xlink="http://www.w3.org/1999/xlink" xml:space="preserve" xmlns:serif="http://www.serif.com/" style="fill-rule:evenodd;clip-rule:evenodd;stroke-linejoin:round;stroke-miterlimit:2;">
    <g transform="matrix(1,0,0,1,-30,-42)">
        <g transform="matrix(1,0,0,1,116.631,-242.702)">
            <path d="M139.372,355.571C149.567,347.456 158.758,339.646 160.01,352.163C160.351,355.567 153.64,394.224 162.844,421.96C184.372,486.829 284.733,302.869 182.442,298.219C159.603,297.181 142.402,310.122 131.251,323.064" style="fill:rgb(75,150,218);"/>
            <path d="M151.618,356.511C149.305,358.119 146.487,360.133 144.355,361.83C140.9,364.58 135.863,364.008 133.113,360.554C130.364,357.099 130.936,352.062 134.39,349.312C140.249,344.649 145.943,340.254 150.229,338.642C151.558,338.142 152.823,337.835 153.999,337.695L157.062,337.693L159.858,338.402L162.503,339.883L164.608,341.934L166.072,344.222C166.937,345.93 167.659,348.255 167.97,351.367C168.086,352.523 167.62,357.282 167.001,364.211C165.795,377.699 164.351,401.102 170.437,419.44C171.867,423.75 173.294,426.619 175.663,427.583C176.857,428.069 178.168,427.74 179.563,427.196C182.247,426.149 185.004,424.128 187.817,421.489C192.586,417.015 197.323,410.824 201.649,403.639C212.697,385.292 221.1,360.496 219.415,339.911C218.671,330.819 215.93,322.59 210.03,316.569C204.033,310.449 194.905,306.794 182.079,306.211C162.044,305.3 147.093,316.933 137.312,328.286C134.43,331.631 129.374,332.007 126.029,329.125C122.684,326.243 122.308,321.187 125.19,317.842C137.71,303.31 157.16,289.062 182.806,290.228C199.427,290.983 211.347,296.073 219.645,303.624C232.09,314.948 236.664,332.223 235.425,351.164C233.525,380.202 217.962,413.073 201.711,430.221C191.244,441.266 179.897,445.666 171.138,442.942C164.912,441.007 158.935,435.578 155.251,424.48C149.401,406.852 149.488,385.071 150.522,369.678C150.852,364.756 151.298,359.821 151.618,356.511Z" style="fill:rgb(75,150,218);"/>
        </g>
        <g transform="matrix(1,0,0,1,-69.67,-241.961)">
            <path d="M223.496,312.289C228.477,306.855 274.196,267.968 314.554,329.081C334.536,359.341 323.069,398.097 302.948,418.511C280.493,441.294 241.069,445.267 219.635,425.311C211.321,417.57 208.417,409.982 209.019,411.185" style="fill:rgb(157,202,243);"/>
            <path d="M216.531,408.433C217.186,409.618 220.285,414.986 225.086,419.456C243.667,436.755 277.785,432.645 297.251,412.895C315.125,394.76 325.63,360.372 307.878,333.49C293.679,311.988 279.086,304.055 265.973,303.187C246.956,301.929 231.935,314.923 229.393,317.695C226.41,320.95 221.345,321.17 218.09,318.187C214.835,315.203 214.615,310.138 217.599,306.884C221.035,303.136 241.322,285.522 267.029,287.222C283.735,288.327 303.14,297.281 321.229,324.673C343.443,358.311 331.012,401.434 308.646,424.127C283.199,449.944 238.473,453.78 214.184,431.166C207.559,424.999 203.876,418.762 202.237,415.445C203.808,418.071 205.987,418.893 207.724,419.079C205.493,418.71 203.445,417.404 202.198,415.366C201.544,414.034 201.228,413.191 201.189,413.039L201.022,409.941L201.473,408.197L202.376,406.49L203.75,404.974L205.785,403.709L208.088,403.105L210.096,403.142L212.05,403.686L214.134,404.97L216.174,407.607C216.31,407.879 216.429,408.154 216.531,408.433ZM202.237,415.445C202.108,415.23 201.984,415.003 201.864,414.763C201.967,414.97 202.079,415.172 202.198,415.366C202.211,415.392 202.224,415.419 202.237,415.445Z" style="fill:rgb(157,202,243);"/>
        </g>
        <g transform="matrix(1,0,0,1,-69.67,-241.961)">
            <path d="M114.679,363.864C126.941,377.42 157.645,328.516 160.01,352.163C160.351,355.567 153.64,394.224 162.844,421.96C184.372,486.829 284.733,302.869 182.442,298.219C143.224,296.437 120.631,335.869 116.748,345.754C111.935,358.006 111.893,360.784 114.679,363.864Z" style="fill:rgb(75,150,218);"/>
            <path d="M151.651,356.163C148.086,358.718 144.094,362.126 140.085,365.165C134.25,369.59 128.24,373.118 123.171,374.006C120.519,374.472 118.007,374.348 115.676,373.656L111.913,371.931L108.746,369.23C104.711,364.769 102.329,360.579 109.302,342.829C111.432,337.408 118.625,323.837 130.731,311.912C143.179,299.65 160.688,289.222 182.806,290.228C199.427,290.983 211.347,296.073 219.645,303.624C232.09,314.948 236.664,332.223 235.425,351.164C233.525,380.202 217.962,413.073 201.711,430.221C191.244,441.266 179.897,445.666 171.138,442.942C164.912,441.007 158.935,435.578 155.251,424.48C149.401,406.852 149.488,385.071 150.522,369.678C150.864,364.58 151.33,359.469 151.651,356.163ZM121.021,358.076C121.228,358.023 121.436,357.962 121.604,357.899C122.776,357.46 123.989,356.801 125.237,356.033C130.806,352.605 136.739,347.231 141.852,343.505C145.908,340.549 149.713,338.542 152.717,337.907L156.699,337.654L159.731,338.353L162.891,340.189L165.225,342.774C166.471,344.626 167.571,347.372 167.97,351.367C168.086,352.523 167.62,357.282 167.001,364.211C165.795,377.699 164.351,401.102 170.437,419.44C171.867,423.75 173.294,426.619 175.663,427.583C176.857,428.069 178.168,427.74 179.563,427.196C182.247,426.149 185.004,424.128 187.817,421.489C192.586,417.015 197.323,410.824 201.649,403.639C212.697,385.292 221.1,360.496 219.415,339.911C218.671,330.819 215.93,322.59 210.03,316.569C204.033,310.449 194.905,306.794 182.079,306.211C164.979,305.434 151.583,313.831 141.959,323.311C131.992,333.128 125.948,344.216 124.194,348.679C122.87,352.049 121.93,354.634 121.345,356.682C121.219,357.125 121.108,357.629 121.021,358.076Z" style="fill:rgb(75,150,218);"/>
        </g>
        <g transform="matrix(0.978346,0.206978,-0.206978,0.978346,108.959,-149.358)">
            <path d="M135.175,374.802C84.751,350.538 4.238,415.608 57.364,483.49C102.904,541.681 216.16,474.143 144.314,451.392C122.632,444.526 75.886,440.79 99.213,425.794C101.323,424.438 190.163,402.296 135.175,374.802Z" style="fill:rgb(233,174,0);"/>
            <path d="M104.178,432.545C107.031,433.687 110.908,435.122 114.304,435.976C125.064,438.68 137.929,440.978 146.729,443.765C164.984,449.546 173.01,458.631 175.021,467.231C177.187,476.488 172.915,486.739 163.127,495.3C151.257,505.682 131.084,513.885 110.047,514.516C88.624,515.158 66.448,508.079 51.063,488.421C34.54,467.308 29.903,446.364 32.663,427.85C36.81,400.042 58.005,377.391 83.112,367.323C101.353,360.01 121.53,359.358 138.644,367.594C138.68,367.611 138.717,367.629 138.753,367.647C152.775,374.658 158.773,382.14 160.476,388.448C162.561,396.168 159.449,403.727 152.213,410.201C139.579,421.504 112.668,429.849 104.178,432.545ZM131.652,381.985L131.608,381.964C118.488,375.692 103.038,376.572 89.067,382.174C69.031,390.208 51.797,408.018 48.488,430.21C46.278,445.03 50.436,461.658 63.664,478.56C75.604,493.817 92.941,499.021 109.568,498.523C126.581,498.013 142.994,491.653 152.594,483.256C157.137,479.283 160.447,475.172 159.442,470.875C159.002,468.993 157.635,467.296 155.558,465.627C152.429,463.114 147.917,460.924 141.899,459.019C131.288,455.658 114.665,453.052 103.212,449.502C96.852,447.53 91.854,445.062 89.094,442.471L87.009,440.059L85.403,436.795L84.86,432.857L85.628,429.04C86.686,426.196 89.333,422.636 94.887,419.065C95.24,418.838 96.963,418.04 99.832,417.144C106.375,415.099 122.657,410.173 134.561,403.198C137.769,401.318 140.643,399.312 142.747,397.121C143.93,395.888 144.949,394.719 145.095,393.339C145.209,392.258 144.504,391.269 143.478,390.094C141.157,387.436 137.282,384.805 131.652,381.985Z" style="fill:rgb(233,174,0);"/>
        </g>
    </g>
</svg>
