<?xml version="1.0" encoding="UTF-8" standalone="no"?>
<!DOCTYPE svg PUBLIC "-//W3C//DTD SVG 1.1//EN" "http://www.w3.org/Graphics/SVG/1.1/DTD/svg11.dtd">
<svg width="100%" height="100%" viewBox="0 0 931 680" version="1.1" xmlns="http://www.w3.org/2000/svg" xmlns:xlink="http://www.w3.org/1999/xlink" xml:space="preserve" xmlns:serif="http://www.serif.com/" style="fill-rule:evenodd;clip-rule:evenodd;stroke-linejoin:round;stroke-miterlimit:2;">
    <g transform="matrix(1,0,0,1,-37,-48)">
        <g id="Ebene1">
            <path d="M102.698,351.515C87.975,351.34 54.614,363.385 54.136,320.314C53.863,295.665 95.514,312.35 109.282,311.537C120.721,310.862 143.409,308.36 142.474,321.362C141.112,340.297 117.421,351.69 102.698,351.515Z" style="fill:rgb(217,117,136);"/>
            <path d="M102.603,359.514C96.276,359.439 86.581,361.513 77.432,360.744C69.549,360.082 62.075,357.529 56.31,351.583C50.613,345.706 46.312,336.161 46.137,320.402C46.066,314.04 47.997,309.473 50.928,306.136C54.93,301.581 61.318,299.169 69.105,298.818C76.275,298.495 84.817,299.836 92.675,301.261C99.182,302.441 105.111,303.769 108.811,303.551C116.376,303.104 128.4,302.143 136.59,304.373C145.649,306.84 151.137,312.425 150.453,321.936C149.753,331.671 144.658,339.963 137.348,346.265C127.286,354.94 113.023,359.638 102.603,359.514ZM102.793,343.516C108.841,343.587 116.697,341.178 123.215,336.911C129.048,333.092 133.994,327.75 134.494,320.788C134.538,320.182 133.798,320.272 133.259,320.081C131.151,319.336 128.546,319.068 125.834,318.952C120.177,318.709 114.109,319.266 109.754,319.523C105.996,319.745 100.4,318.929 94.088,317.783C86.329,316.375 77.237,314.468 69.824,314.802C66.991,314.93 64.406,315.037 62.95,316.695C62.244,317.498 62.119,318.693 62.136,320.225C62.248,330.314 64.15,336.683 67.798,340.446C71.674,344.445 77.208,344.968 82.55,344.935C90.114,344.889 97.604,343.454 102.793,343.516Z" style="fill:rgb(217,117,136);"/>
            <path d="M259.695,500.694C261.664,517.771 218.084,540.934 225.622,497.702C226.778,491.075 258.739,492.408 259.695,500.694Z" style="fill:rgb(217,117,136);"/>
            <path d="M267.642,499.778C268.613,508.198 262.619,518.198 253.708,524.341C244.44,530.729 232.9,532.321 225.499,527.234C219.592,523.175 214.656,514.02 217.741,496.328L218.372,494.165L219.37,492.318L220.807,490.601L223.058,488.852C226.028,487.018 231.459,485.672 237.628,485.509C245.819,485.292 255.272,486.986 260.479,489.947C261.699,490.64 262.752,491.406 263.63,492.211L265.581,494.423L266.904,496.86L267.642,499.778ZM233.044,502.137C232.591,505.832 232.628,508.806 233.158,511.16C233.458,512.491 233.791,513.519 234.561,514.048C235.421,514.639 236.546,514.471 237.691,514.263C240.021,513.84 242.435,512.678 244.627,511.167C246.909,509.595 248.959,507.623 250.349,505.479C250.795,504.791 251.206,504.103 251.47,503.414C250.859,503.159 250.143,502.886 249.541,502.724C246.112,501.8 241.87,501.402 238.051,501.503C236.423,501.546 234.413,501.876 233.044,502.137Z" style="fill:rgb(217,117,136);"/>
            <path d="M501.744,127.972C480.457,148.684 482.842,159.767 453.63,153.925C437.634,150.725 373.793,83.978 470.251,82.191C490.355,81.819 574.599,71.85 579.892,104.936C582.92,123.859 556.007,138.178 544.317,138.178C537.19,138.178 508.468,123.49 501.744,127.972Z" style="fill:rgb(217,117,136);"/>
            <path d="M505.765,135.247C498.325,142.726 493.979,148.853 489.839,153.233C486.275,157.003 482.758,159.713 478.42,161.432C472.5,163.777 464.753,164.308 452.061,161.769C449.307,161.218 445.422,159.476 441.161,156.518C433.104,150.928 422.976,140.807 416.639,129.768C409.571,117.458 407.494,104.102 414.396,93.504C420.914,83.493 437.033,74.805 470.103,74.193C484.573,73.925 531.348,69.071 559.984,77.702C575.321,82.325 585.751,90.917 587.792,103.672C589.415,113.816 585.042,123.136 577.699,130.472C567.848,140.313 552.723,146.178 544.317,146.178C542.507,146.178 539.678,145.653 536.25,144.588C530.58,142.826 522.482,139.548 515.19,137.262C511.944,136.245 507.482,135.51 505.765,135.247ZM497.306,121.316L499.704,120.086L503.059,119.266C505.972,118.898 509.974,119.316 514.486,120.436C521.431,122.16 530.009,125.504 536.868,127.922C540.159,129.082 542.833,130.178 544.317,130.178C549.939,130.178 559.802,125.735 566.39,119.153C570.009,115.537 572.793,111.199 571.993,106.2C571.317,101.976 568.366,99.054 564.389,96.759C558.9,93.593 551.604,91.68 543.576,90.435C516.744,86.273 482.24,89.971 470.4,90.19C457.01,90.438 446.946,91.954 439.582,94.506C433.761,96.523 429.89,99.031 427.804,102.234C424.052,107.997 426.672,115.109 430.514,121.802C434.912,129.462 441.579,136.563 447.497,141.29C450.609,143.776 453.299,145.7 455.199,146.08C463.358,147.712 468.42,148.074 472.293,146.646C475.925,145.307 478.214,142.394 481.373,138.654C485.123,134.214 489.545,128.68 496.165,122.239C496.517,121.897 496.899,121.588 497.306,121.316Z" style="fill:rgb(217,117,136);"/>
            <path d="M593.717,266.222C620.496,286.257 582.514,309.425 598.496,350.379C620.49,406.737 597.914,415.648 552.266,414.833C517.432,414.211 499.298,393.054 529.743,368.877C533.199,366.132 551.701,357.181 541.458,342.671C539.48,339.868 533.293,331.104 502.919,361.478C472.185,392.212 465.753,395.054 478.254,420.057C479.822,423.193 490.972,447.571 468.362,462.942C463.812,466.035 460.213,470.266 444.878,468.433C434.268,467.164 436.966,440.152 409.648,440.108C385.316,440.069 393.415,456.048 379.903,441.948C374.802,436.625 346.927,389.409 398.401,364.869C442.501,343.845 432.26,331.278 469.622,299.815C475.787,294.623 524.5,259.263 558.724,258.193C560.946,258.124 582.69,257.973 593.717,266.222Z" style="fill:rgb(82,143,110);"/>
            <path d="M535.021,347.425C534.259,347.601 532.669,348.02 531.283,348.711C527.607,350.545 522.877,353.902 516.656,359.46C514.182,361.671 511.496,364.215 508.576,367.135C498.056,377.655 490.429,384.816 485.507,390.751C482.07,394.896 480.096,397.987 480.253,401.862C480.416,405.861 482.326,410.311 485.41,416.48C487.353,420.365 500.88,450.509 472.86,469.558C467.252,473.37 462.828,478.636 443.928,476.376C438.369,475.712 434.146,471.864 430.728,465.592C427.201,459.122 424.401,448.132 409.635,448.108C401.223,448.095 398.13,450.536 396.177,452.166C395.009,453.142 393.963,453.91 392.956,454.445C389.325,456.374 384.201,457.995 374.127,447.483C369.953,443.128 352.641,414.796 363.323,388.339C367.833,377.171 377.179,366.125 394.959,357.648C419.584,345.908 426.014,337.013 434.72,325.442C441.226,316.794 448.878,306.825 464.468,293.696C470.962,288.228 522.428,251.324 558.474,250.197C561.023,250.117 585.863,250.356 598.509,259.817C604.169,264.051 607.524,268.487 609.447,273.012C612.291,279.708 612.027,286.808 610.14,294.591C606.818,308.293 597.149,324.92 605.949,347.47C611.875,362.655 614.683,374.672 614.967,384.1C615.308,395.431 612.152,403.579 606.582,409.518C602.234,414.155 596.259,417.495 588.709,419.622C579.141,422.318 566.745,423.093 552.123,422.832C537.667,422.574 525.775,418.99 518.023,413.538C511.615,409.031 507.745,403.202 506.606,396.698C504.927,387.104 509.361,374.847 524.767,362.613C526.088,361.564 529.728,359.594 532.97,356.688C534.555,355.267 536.309,353.657 536.502,351.451C536.609,350.22 536.059,348.925 535.021,347.425ZM387.742,438.428C388.753,437.668 389.964,436.827 391.154,436.164C394.865,434.098 400.389,432.094 409.661,432.108C427.256,432.137 435.187,440.847 440.425,449.757C442.098,452.604 443.434,455.472 444.777,457.935C445.262,458.825 446.131,460.054 446.5,460.566C457.705,461.773 460.44,458.654 463.864,456.326C481.065,444.633 472.292,426.02 471.099,423.635C466.681,414.8 464.499,408.239 464.266,402.511C464.014,396.287 465.772,390.765 470.098,384.57C475.004,377.545 483.88,369.204 497.262,355.821C510.485,342.599 519.615,336.344 525.805,333.611C532.894,330.481 537.626,331.093 540.767,332.249L543.124,333.373L545.018,334.722C546.391,335.879 547.338,337.128 547.994,338.057C551.984,343.709 552.921,348.894 552.379,353.447C551.84,357.967 549.725,362.002 546.805,365.4C542.621,370.268 536.632,373.622 534.718,375.142C529.64,379.174 526.104,383.032 524.055,386.746C522.625,389.337 521.981,391.734 522.367,393.94C522.976,397.42 525.936,400.011 529.965,402.098C535.645,405.04 543.392,406.673 552.409,406.834C563.172,407.027 572.579,406.69 580.305,405.18C586.579,403.953 591.618,402.085 594.911,398.573C597.943,395.34 599.16,390.749 598.974,384.581C598.731,376.513 596.115,366.282 591.044,353.287C582.21,330.652 587.925,312.921 592.513,298.091C595.577,288.188 598.809,280.023 588.924,272.628C579.516,265.589 560.87,266.13 558.974,266.189C526.572,267.202 480.612,301.019 474.775,305.935C456.715,321.143 450.198,331.819 442.829,341.199C434.624,351.643 425.58,360.775 401.844,372.091C388.738,378.339 381.484,386.097 378.16,394.33C370.564,413.141 382.711,433.316 385.678,436.412C386.378,437.142 387.103,437.838 387.742,438.428Z" style="fill:rgb(82,143,110);"/>
            <path d="M347.806,634.928C311.189,654.535 317.727,711.77 260.547,705.555C212.949,700.381 210.405,608.335 278.794,627.201C281.74,628.014 308.741,635.463 316.36,620.224C324.413,604.119 256.599,580.755 306.797,565.575C318.996,561.886 328.197,555.526 333.482,549.676C350.197,531.177 361.426,530.748 396.073,491.771C407.545,478.865 398.479,472.091 406.542,468.518C413.279,465.532 411.589,471.8 416.403,477.5C424.663,487.281 436.13,496.287 445.161,497.327C493.211,502.863 494.532,488.211 502.585,466.737C514.588,434.729 539.829,436.412 543.908,436.684C572.907,438.617 578.028,434.62 591.135,460.834C593.704,465.972 595.859,464.378 633.532,518.794C646.756,537.896 682.071,543.001 648.456,588.057C620.685,625.279 589.346,563.767 578.255,617.004C569.051,661.182 535.244,633.235 529.418,649.741C523.221,667.301 556.269,719.511 527.271,714.678C513.639,712.406 511.404,683.357 511.171,680.331C508.345,643.594 455.965,590.761 439.775,599.921C435.277,602.466 433.938,605.68 434.796,608.699C435.929,612.68 499.192,667.583 479.508,674.965C473.871,677.078 471.283,667.257 469.848,673.355C465.791,690.598 465.871,697.789 448.918,692.138C434.293,687.263 438.933,681.316 449.796,670.125C406.582,621.998 409.987,601.646 393.104,615.931C374.141,631.977 371.733,628.092 347.806,634.928Z" style="fill:rgb(75,150,218);"/>
            <path d="M308.892,617.213C308.702,616.82 308.368,616.156 308.076,615.734C307.347,614.68 306.425,613.614 305.394,612.525C300.992,607.874 294.888,603.019 290.094,598.186C283.072,591.107 279.173,583.476 280.374,576.83C281.502,570.589 287.368,563.093 304.481,557.918C314.998,554.737 322.99,549.356 327.546,544.313C344.248,525.828 355.473,525.404 390.094,486.456C394.564,481.427 394.536,477.73 394.645,475.019C394.704,473.578 394.811,472.27 395.055,471.077L395.944,468.239L397.756,465.279L400.355,462.865C401.175,462.28 402.141,461.718 403.3,461.204C405.195,460.364 406.77,459.973 408.07,459.826L412.087,460.071L415.372,461.533L417.668,463.61C418.511,464.615 419.276,465.913 419.978,467.483C420.569,468.808 421.079,470.638 422.515,472.338C429.391,480.481 438.559,488.514 446.077,489.38C466.862,491.775 477.638,490.716 483.99,485.823C486.632,483.788 488.277,481.074 489.721,477.976C491.648,473.839 493.16,469.085 495.094,463.928C500.698,448.985 508.925,440.449 516.904,435.467C529.309,427.721 541.48,428.504 544.44,428.701C555.162,429.416 562.704,429.37 568.596,430.238C573.707,430.991 577.829,432.386 581.619,434.896C587.163,438.569 592.141,444.957 598.29,457.256C600.819,462.314 603.029,460.68 640.109,514.24C643.693,519.417 649.169,523.354 654.125,527.57C662.047,534.311 668.727,541.687 670.238,551.953C671.655,561.591 668.54,574.516 654.868,592.84C649.312,600.289 643.532,604.444 637.869,606.663C629.344,610.005 620.835,608.982 612.759,606.69C608.068,605.36 603.569,603.592 599.388,602.631C597.13,602.112 595.036,601.609 593.199,602.597C592.007,603.238 591.07,604.477 590.113,606.242C588.524,609.172 587.216,613.214 586.087,618.636C583.286,632.078 578.269,639.859 572.725,644.545C566.722,649.62 559.841,651.341 553.033,651.736C548.789,651.982 544.615,651.672 540.942,651.739C539.83,651.759 538.784,651.81 537.835,651.996C537.487,652.064 537.095,652.027 536.962,652.404C535.612,656.229 537.248,662.105 538.956,668.591C542.463,681.911 547.741,696.98 547.345,706.437C547.099,712.297 545.008,716.706 541.498,719.538C538.265,722.147 533.359,723.803 525.956,722.569C519.569,721.505 514.431,717.115 510.852,710.75C504.829,700.038 503.378,683.331 503.195,680.945C501.369,657.206 476.739,626.448 457.233,612.873C453.494,610.272 449.985,608.322 446.874,607.37C445.598,606.98 444.537,606.419 443.714,606.884C443.699,606.893 443.683,606.902 443.667,606.911C451.831,615.599 475.429,637.872 485.514,653.885C488.879,659.227 490.834,664.136 491.217,667.974L491.096,672.148L490.526,674.363L489.526,676.544L488.101,678.539L486.342,680.214L482.317,682.455L479.698,683.136L477.041,683.238L475.822,683.003C475.078,686.116 474.371,688.75 473.524,690.886C471.864,695.074 469.581,697.913 466.666,699.727C462.646,702.227 456.539,703.111 446.388,699.728C436.445,696.413 432.824,691.45 431.94,687.099L431.689,684.543L431.914,682.141C432.246,680.33 432.981,678.372 434.201,676.303C435.319,674.408 436.954,672.304 439.001,669.975C420.4,648.452 411.303,632.999 405.067,624.276C403.839,622.557 402.201,620.755 401.351,619.85C400.56,620.347 399.26,621.202 398.272,622.038C378.242,638.986 375.621,635.402 350.859,642.378L350.855,642.38C343.293,646.631 337.962,652.836 333.391,659.592C328.009,667.548 323.653,676.274 318.653,684.195C307.073,702.537 292.493,717.074 259.682,713.508C239.647,711.33 226.018,696.613 220.592,679.037C215.226,661.656 218.154,641.779 229.875,629.341C239.909,618.693 256.55,612.766 280.921,619.489C282.447,619.91 291.441,622.467 299.819,621.545C303.373,621.154 307.006,620.294 308.892,617.213ZM448.691,683.397C449.505,683.791 450.501,684.233 451.448,684.549C453.474,685.224 455.19,685.691 456.663,685.913C457.132,685.984 457.737,686.001 458.123,686.004C458.432,685.303 459.166,683.582 459.536,682.238C460.342,679.306 461.073,675.72 462.06,671.522L462.82,669.13L463.878,667.189L466.32,664.782L468.018,663.905L469.929,663.413L472.105,663.384L472.661,663.528C471.005,660.736 468.813,657.705 466.326,654.561C455.217,640.524 438.427,624.653 431.82,617.653C428.736,614.386 427.352,611.767 427.102,610.887C425.404,604.921 426.946,597.988 435.835,592.958C439.254,591.024 443.553,590.344 448.544,591.314C453.656,592.307 459.846,595.199 466.372,599.74C489.128,615.577 517.017,652.024 519.148,679.718C519.273,681.342 519.993,691.357 523.223,699.541C523.933,701.339 524.761,703.044 525.787,704.47C526.569,705.555 527.362,706.583 528.587,706.787C529.461,706.933 530.562,706.932 531.211,706.915C531.275,706.563 531.344,706.112 531.359,705.767C531.427,704.148 531.221,702.305 530.882,700.303C529.311,691.04 524.963,679.186 522.55,668.937C520.496,660.21 520.003,652.379 521.874,647.079C524.854,638.635 531.504,635.908 540.651,635.742C544.276,635.675 548.422,636.031 552.617,635.73C555.598,635.516 558.651,634.973 561.368,633.11C565.436,630.322 568.438,624.902 570.423,615.373C573.99,598.25 580.27,590.968 586.615,588.007C593.213,584.928 601.052,586.184 609.544,588.907C616.7,591.202 624.607,595.033 632.588,591.536C635.791,590.131 638.901,587.486 642.044,583.273C651.909,570.051 655.431,561.236 654.408,554.282C653.477,547.954 648.639,543.91 643.757,539.756C637.74,534.637 631.305,529.633 626.954,523.348C588.689,468.076 586.589,469.631 583.98,464.412C579.642,455.736 576.693,450.825 572.783,448.235C570.273,446.573 567.406,446.11 563.681,445.764C558.472,445.281 551.988,445.24 543.376,444.666C540.058,444.445 519.84,443.506 510.075,469.546C505.442,481.9 502.202,491.992 493.753,498.499C485.417,504.919 471.521,508.417 444.245,505.275C433.698,504.06 419.938,494.085 410.291,482.661C410.182,482.533 410.075,482.402 409.969,482.267C409.144,486.373 407.203,491.291 402.052,497.086C367.379,536.093 356.146,536.526 339.418,555.039C333.404,561.696 322.994,569.035 309.113,573.233C304.105,574.747 300.475,576.276 298.014,577.964C297.076,578.608 296.291,579.018 296.111,579.712C296.041,579.981 296.278,580.211 296.403,580.493C296.78,581.339 297.342,582.179 297.998,583.04C300.382,586.167 303.867,589.308 307.365,592.454C313.165,597.669 318.958,602.925 321.979,607.762C325.474,613.359 326.015,618.804 323.516,623.802C319.19,632.455 310.754,636.438 301.569,637.449C290.537,638.664 278.676,635.468 276.666,634.913C259.997,630.315 248.383,633.031 241.519,640.314C233.528,648.794 232.222,662.467 235.88,674.317C239.477,685.97 248.128,696.158 261.411,697.602C291.271,700.847 300.774,683.588 310.797,666.075C319.205,651.384 327.989,636.465 344.03,627.876C344.532,627.607 345.061,627.393 345.608,627.236C367.903,620.866 370.267,624.775 387.937,609.824C394.58,604.203 399.744,602.893 404.072,603.659C407.269,604.224 410.49,605.972 413.791,609.555C420.615,616.962 429.782,635.861 455.748,664.78C458.558,667.909 458.465,672.68 455.536,675.697C453.046,678.263 450.9,680.518 449.31,682.542C449.105,682.803 448.893,683.1 448.691,683.397Z" style="fill:rgb(75,150,218);"/>
            <path d="M756.717,544.777C723.378,563.525 782.982,614.66 748.65,632.97C738.113,638.59 653.218,627.164 677.926,584.456C700.219,545.924 681.717,535.894 655.358,506.322C624.05,471.197 608.354,442.898 610.469,436.201C615.655,419.771 628.912,414.612 629.106,380.554C629.286,349.022 614.739,347.145 617.128,323.117C619.35,300.766 630.452,280.958 658.381,286.543C687.438,292.355 681.974,315.526 656.984,331.145C613.572,358.278 675.436,376.431 701.29,348.422C718.093,330.219 701.788,300.209 732.122,297.783C745.816,296.687 738.658,327.898 752.554,317.09C760.912,310.589 785.569,305.446 799.227,299.238C835.221,282.877 939.667,275.691 888.012,329.012C844.263,374.173 867.104,384.255 851.522,445.471C836.918,502.842 859.163,483.752 859.188,513.49C859.206,535.298 866.891,556.561 831.726,539.857C786.356,518.306 777.392,533.199 756.717,544.777Z" style="fill:rgb(179,69,53);"/>
            <path d="M750.026,309.148C753.989,306.734 759.679,304.394 766.08,302.213C776.05,298.816 787.921,295.589 795.917,291.955C818.935,281.492 868.246,274.843 892.097,283.239C900.69,286.263 906.431,291.253 908.813,297.528C911.954,305.802 909.452,318.378 893.758,334.579C869.665,359.45 867.395,372.643 866.489,391.424C865.811,405.464 865.69,422.242 859.275,447.445C853.859,468.719 853.502,478.025 855.701,483.678C857.106,487.289 859.452,489.224 861.357,492C864.42,496.463 867.178,502.155 867.188,513.483C867.196,523.137 868.503,532.69 867.417,539.219C866.622,543.997 864.699,547.659 861.794,550.148C859.074,552.477 855.357,554.028 850.048,553.835C845.153,553.657 838.126,551.754 828.293,547.083C811.855,539.275 800.767,536.483 792.092,536.934C784.963,537.304 779.72,540.007 774.412,543.246C770.057,545.904 765.688,548.921 760.638,551.75C754.203,555.369 753.561,561.029 754.643,567.266C755.688,573.287 758.158,579.771 760.559,586.262C764.099,595.833 767.44,605.432 767.702,613.852C768.033,624.473 764.312,633.684 752.415,640.029C749.865,641.389 744.139,642.498 736.556,642.261C722.323,641.817 700.251,637.539 685.021,628.476C674.769,622.375 667.574,614.067 665.845,603.961C664.676,597.128 665.895,589.277 671.002,580.45C676.818,570.397 679.664,562.653 679.868,555.934C680.084,548.816 677.054,543.161 672.404,537.142C666.611,529.642 658.463,521.829 649.386,511.646C626.747,486.246 612.094,464.24 606.038,450.986C602.318,442.843 601.9,436.768 602.84,433.792C604.607,428.193 607.152,423.723 609.921,419.197C615.062,410.795 620.984,402.052 621.106,380.508C621.205,363.219 616.323,355.719 612.982,347.716C610.105,340.826 608.04,333.667 609.167,322.325C610.747,306.44 616.645,291.894 627.831,284.024C635.637,278.532 646.097,275.928 659.95,278.699C675.764,281.862 683.321,289.805 685.41,298.357C686.743,303.81 685.945,309.917 682.826,316.104C679.062,323.568 671.687,331.39 661.224,337.929C656.771,340.712 653.608,343.308 651.629,345.801C650.651,347.033 649.935,348.045 649.955,349.074C649.969,349.776 650.628,350.189 651.257,350.673C652.442,351.584 653.967,352.296 655.695,352.873C666.643,356.527 684.747,354.549 695.411,342.996C698.622,339.518 700.155,335.427 701.155,331.291C702.425,326.038 702.877,320.662 703.758,315.768C705.216,307.678 707.919,300.753 713.885,295.984C717.855,292.811 723.384,290.456 731.484,289.808C739.541,289.163 744.39,293.546 747.305,300.37C748.456,303.065 749.253,306.223 750.026,309.148ZM618.343,437.862C618.575,438.731 619.434,441.805 620.592,444.337C626.26,456.744 640.139,477.224 661.33,500.999C670.704,511.516 679.083,519.616 685.066,527.36C692.194,536.587 696.191,545.506 695.861,556.418C695.596,565.152 692.41,575.396 684.851,588.463C682.203,593.039 681.096,597.054 681.528,600.659C682.003,604.616 684.353,607.862 687.54,610.67C691.631,614.274 697.075,617.109 702.947,619.371C715.554,624.227 730.156,626.361 739.458,626.301C741.828,626.285 744.708,625.854 745.102,625.794C751.499,622.271 752.325,616.774 751.335,610.669C750.369,604.709 747.943,598.273 745.553,591.813C742.03,582.288 738.626,572.708 738.229,564.268C737.726,553.579 741.25,544.296 752.796,537.804L752.808,537.797C766.378,530.198 775.548,521.771 791.263,520.955C801.743,520.411 815.299,523.198 835.158,532.631C841.241,535.52 845.809,537.19 849.276,537.711C849.946,537.812 850.816,537.807 851.322,537.792C851.43,537.447 851.573,536.957 851.634,536.594C851.861,535.225 851.917,533.673 851.91,531.991C851.889,526.55 851.193,520.048 851.188,513.496C851.177,501.144 846.149,499.096 843.043,494.015C838.789,487.056 835.461,476.137 843.769,443.498C849.82,419.727 849.869,403.895 850.508,390.653C851.576,368.51 853.86,352.769 882.266,323.446C887.815,317.718 891.379,312.883 893.112,308.694C894.065,306.392 894.484,304.521 893.754,302.97C892.937,301.232 891.079,300.149 888.84,299.146C885.248,297.537 880.687,296.539 875.559,295.94C852.733,293.272 819.546,298.79 802.538,306.521C794.144,310.336 781.706,313.792 771.24,317.358C765.446,319.332 760.309,321.193 757.465,323.405C754.471,325.733 751.916,326.767 749.881,327.153L746.617,327.323L743.289,326.494L740.539,324.828L738.611,322.845C737.495,321.417 736.516,319.51 735.738,317.251C734.825,314.599 734.157,311.231 733.158,308.186C732.919,307.458 732.415,306.414 732.114,305.814C727.806,306.229 724.918,307.254 723.079,309.219C719.598,312.938 719.438,318.648 718.584,324.573C717.135,334.625 715.081,345.276 707.168,353.849C692.295,369.961 667.294,373.147 651.635,368.371C643.121,365.774 637.252,360.748 635.051,354.994C632.121,347.334 634.67,335.658 652.744,324.361C659.134,320.368 664.091,315.866 667.139,311.288C669.279,308.074 670.557,304.974 669.868,302.154C668.881,298.116 664.28,295.882 656.812,294.388C648.319,292.689 641.824,293.743 637.038,297.11C629.335,302.53 626.177,312.969 625.089,323.908C624.08,334.054 626.792,339.494 629.592,345.756C633.255,353.947 637.205,363.18 637.106,380.599C636.978,403.184 631.562,414.247 626.083,423.424C623.227,428.209 620.236,432.314 618.343,437.862Z" style="fill:rgb(179,69,53);"/>
            <path d="M828.572,227.224C828.697,231.407 834.632,263.846 822.474,267.398C817.027,268.989 811.652,272.031 798.147,254.605C763.233,209.554 906.75,129.162 948.03,153.444C953.758,156.814 967.963,170.894 880.596,187.803C863.293,191.152 860.62,201.847 846.456,212.076C841.034,215.992 831.786,218.654 828.572,227.224Z" style="fill:rgb(233,174,0);"/>
            <path d="M836.707,228.683C837.274,234.252 839.256,249.333 836.991,259.659C835.229,267.69 830.92,273.265 824.718,275.077C821.578,275.994 818.415,276.986 814.552,276.551C809.418,275.972 802.169,272.854 791.823,259.505C782.91,248.004 782.685,234.726 789.127,221.046C794.6,209.421 805.252,197.369 818.901,186.322C842.439,167.275 874.895,151.031 902.645,144.336C922.889,139.453 940.822,139.923 952.086,146.549C955.516,148.566 959.918,152.918 960.463,158.359C960.826,161.99 959.926,166.623 954.608,171.463C947.56,177.877 928.389,186.702 882.116,195.658C873.769,197.273 869.742,201.161 865.327,205.673C861.386,209.7 857.24,214.156 851.14,218.562C848.789,220.259 845.792,221.769 842.798,223.529C840.546,224.852 838.132,226.264 836.707,228.683ZM819.99,259.794C820.14,259.541 820.656,258.651 820.866,258.041C821.449,256.343 821.757,254.347 821.939,252.241C822.811,242.107 820.648,229.883 820.576,227.464C820.545,226.424 820.717,225.389 821.082,224.415C823.334,218.409 827.542,214.338 832.296,211.217C835.581,209.061 839.146,207.487 841.772,205.591C848.504,200.729 852.465,195.714 856.839,191.559C862.444,186.236 868.54,181.988 879.076,179.949C912.66,173.449 930.676,167.553 939.793,162.407C941.105,161.667 942.36,160.708 943.273,159.947C934.686,155.358 921.356,156.282 906.398,159.89C880.733,166.081 850.735,181.144 828.967,198.76C817.447,208.082 808.222,218.051 803.602,227.862C799.95,235.618 799.416,243.183 804.47,249.704C807.951,254.196 810.755,257.15 813.169,258.985C814.456,259.963 815.422,260.547 816.343,260.651C817.748,260.809 818.855,260.17 819.99,259.794Z" style="fill:rgb(233,174,0);"/>
            <path d="M759.764,87.978C735.391,81.352 769.247,64.654 777.84,72.633C780.654,75.246 777.852,86.374 771.035,88.322C768.261,89.114 764.583,89.288 759.764,87.978Z" style="fill:rgb(217,117,136);"/>
            <path d="M757.666,95.697C746.332,92.617 743.33,86.477 743.108,82.064C742.878,77.482 745.971,71.888 752.239,68.02C757.237,64.936 764.147,62.726 770.059,62.533C775.522,62.354 780.227,63.932 783.284,66.77L785.143,69.07L786.191,71.346L786.847,74.467C786.934,75.362 786.95,76.328 786.882,77.342C786.404,84.458 781.148,93.753 773.233,96.014C769.402,97.108 764.32,97.507 757.666,95.697ZM762.694,80.469C765.274,81.074 767.282,81.074 768.837,80.63C769.502,80.44 769.757,79.658 770.083,79.029C770.155,78.891 770.222,78.736 770.285,78.572C769.963,78.572 769.649,78.585 769.373,78.617C767.151,78.878 764.749,79.536 762.694,80.469Z" style="fill:rgb(217,117,136);"/>
            <path d="M831.73,83.539C817.291,74.63 836.924,69.031 840.03,70.175C845.665,72.252 845.792,87.054 831.73,83.539Z" style="fill:rgb(217,117,136);"/>
            <path d="M827.53,90.347C822.527,87.26 820.256,84.044 819.274,81.464L818.524,78.172L818.754,74.794L819.825,71.854L821.354,69.559C824.004,66.353 829.261,63.742 833.82,62.678C835.615,62.26 837.275,62.057 838.559,62.031L840.764,62.158L842.795,62.668L846.004,64.445L848.358,66.791L850.544,70.731C851.033,72.037 851.366,73.452 851.511,74.908C851.755,77.352 851.464,79.905 850.599,82.247L848.665,85.879L845.546,89.027C842.227,91.481 837.163,93.143 829.79,91.3C828.992,91.1 828.23,90.779 827.53,90.347Z" style="fill:rgb(217,117,136);"/>
            <path d="M867.651,80.025C862.37,66.135 883.159,65.415 884.451,71.876C886.056,79.9 868.765,83.366 867.651,80.025Z" style="fill:rgb(217,117,136);"/>
            <path d="M860.062,82.555L860.173,82.868C857.336,75.407 859.082,69.993 862.168,66.241C866.3,61.218 874.29,59.13 880.683,60.291C883.861,60.867 886.59,62.188 888.49,63.851L890.811,66.568L892.295,70.308L892.537,73.609L891.961,76.792L889.96,80.745C889.225,81.76 888.334,82.716 887.307,83.59C883.476,86.847 877.352,88.902 872.637,89.235C870.915,89.356 869.354,89.266 868.076,89.032L864.356,87.713L861.532,85.29L860.062,82.555Z" style="fill:rgb(217,117,136);"/>
            <path d="M400.255,674.528C391.714,670.157 392.748,640.46 401.524,643.894C405.571,645.478 403.845,646.921 406.179,659.211C407.502,666.18 404.553,676.677 400.255,674.528Z" style="fill:rgb(217,117,136);"/>
            <path d="M396.61,681.65C393.315,679.963 390.396,676.536 388.621,671.742C385.777,664.055 385.773,652.413 388.226,645.497C388.992,643.335 389.995,641.532 391.104,640.154L392.746,638.442L394.938,636.929L397.194,636.024L399.691,635.629L402.175,635.8L404.439,636.444L406.912,637.646L408.764,639.037L410.763,641.513L411.879,644.06C412.522,646.133 412.54,649.831 414.038,657.719C415.394,664.859 413.201,674.439 409.897,678.519L408.473,680.02L406.548,681.418L403.05,682.675L399.694,682.673L396.677,681.684C396.655,681.673 396.632,681.661 396.61,681.65Z" style="fill:rgb(217,117,136);"/>
            <path d="M278.736,491.284C271.039,481.493 247.286,440.458 276.772,438.365C292.104,437.277 296.343,462.145 306.173,481.556C314.609,498.214 330.684,510.076 321.693,522.664C299.675,553.489 258.452,554.403 283.346,512.803C286.743,507.126 283.477,497.315 278.736,491.284Z" style="fill:rgb(233,174,0);"/>
            <path d="M272.447,496.228C267.301,489.683 255.891,470.526 254.542,455.807C253.941,449.247 255.21,443.412 258.477,438.984C261.796,434.484 267.278,431.019 276.206,430.385C285.335,429.737 292.269,434.554 297.704,443.278C303.283,452.234 307.301,466.075 313.31,477.941C318.429,488.05 326.296,496.435 329.833,504.258C333.394,512.133 333.696,519.624 328.203,527.314C317.461,542.353 302.569,550.955 291.299,552.652C284.852,553.622 279.303,552.451 275.299,549.771C271.154,546.996 268.256,542.616 267.699,536.283C267.142,529.948 269.286,520.72 276.481,508.695C277.21,507.477 276.757,505.807 276.334,504.127C275.62,501.286 274.166,498.415 272.447,496.228ZM285.025,486.34C288.686,490.996 291.624,497.421 292.476,503.38C293.199,508.435 292.436,513.192 290.211,516.911C286.089,523.799 283.947,529.197 283.639,533.353C283.534,534.782 283.382,535.928 284.199,536.475C286.046,537.711 288.877,537.079 292.067,536.094C299.666,533.747 308.433,527.464 315.183,518.014C317.635,514.581 315.752,511.347 313.597,507.735C309.565,500.975 303.342,493.674 299.036,485.17C294.109,475.441 290.579,464.346 286.364,455.818C285.018,453.095 283.628,450.673 282,448.807C280.7,447.319 279.296,446.206 277.339,446.345C274.365,446.556 272.292,447.059 271.265,448.607C270.095,450.372 270.243,452.769 270.589,455.346C271.049,458.773 272.207,462.45 273.652,466.05C277.098,474.635 282.22,482.771 285.025,486.34Z" style="fill:rgb(233,174,0);"/>
        </g>
    </g>
</svg>
