<?xml version="1.0" encoding="UTF-8" standalone="no"?>
<!DOCTYPE svg PUBLIC "-//W3C//DTD SVG 1.1//EN" "http://www.w3.org/Graphics/SVG/1.1/DTD/svg11.dtd">
<svg width="100%" height="100%" viewBox="0 0 352 166" version="1.1" xmlns="http://www.w3.org/2000/svg" xmlns:xlink="http://www.w3.org/1999/xlink" xml:space="preserve" xmlns:serif="http://www.serif.com/" style="fill-rule:evenodd;clip-rule:evenodd;stroke-linejoin:round;stroke-miterlimit:2;">
    <g transform="matrix(1,0,0,1,-30,-578)">
        <path d="M73.326,721.002C54.534,707.521 40.264,634.094 91.275,606.402C100.411,601.443 133.979,583.656 149.466,600.744C160.819,613.271 182.887,609.049 228.331,595.137C268.705,582.778 274.199,641.873 317.511,635.503C384.647,625.63 381.537,681.139 338.163,704.031C269.202,740.427 167.453,727.964 96.908,730.316C81.169,730.84 80.193,725.928 73.326,721.002Z" style="fill:rgb(217,117,136);"/>
        <path d="M68.662,727.502C59.993,721.283 51.41,704.331 48.894,683.787C45.271,654.203 53.568,617.769 87.459,599.371C93.378,596.158 108.835,588.06 123.835,586C135.803,584.356 147.388,586.538 155.394,595.372C159.603,600.017 165.984,600.804 175.339,599.893C187.581,598.701 203.942,594.237 225.989,587.488C249.758,580.212 263.68,592.92 277.614,607.558C287.752,618.209 297.794,630.317 316.347,627.588C347.884,622.951 365.778,632.144 373.171,644.711C378.035,652.98 378.836,663.171 375.591,673.58C371.292,687.371 359.661,701.731 341.897,711.106C306.426,729.827 262.559,736.156 218.452,737.934C175.556,739.662 132.463,737.135 97.174,738.311C78.246,738.942 76.921,733.427 68.662,727.502ZM77.989,714.501C83.467,718.431 84.087,722.739 96.641,722.32C131.898,721.145 174.952,723.674 217.807,721.947C259.451,720.269 300.94,714.631 334.429,696.956C347.896,689.849 357.057,679.273 360.316,668.818C362.111,663.061 362.07,657.396 359.379,652.823C354.176,643.977 340.875,640.153 318.675,643.418C293.908,647.06 279.559,632.808 266.025,618.59C256.283,608.356 247.29,597.7 230.673,602.787C202.304,611.471 182.652,616.349 168.949,616.188C157.49,616.054 149.464,612.656 143.538,606.117C139.151,601.276 132.569,600.95 126.012,601.851C113.233,603.606 100.135,610.695 95.092,613.433C67.768,628.266 61.855,657.99 64.775,681.842C65.952,691.453 68.571,700.164 71.979,706.63C73.822,710.127 75.795,712.927 77.989,714.501Z" style="fill:rgb(217,117,136);"/>
        <g transform="matrix(1,0,0,1,-4.15728,-6.13694)">
            <path d="M127.453,714.54C107.901,690.356 72.399,629.552 128.625,631.56C148.476,632.269 167.224,634.727 155.819,662.668C150.804,674.956 123.605,718.388 127.453,714.54Z" style="fill:rgb(179,69,53);"/>
            <path d="M135.298,716.11C134.998,717.612 134.266,719.041 133.11,720.197L130.587,722.004L128.183,722.711L124.787,722.432L122.181,721.079L120.329,719.034L119.844,717.824C109.612,704.768 96.192,683.309 91.841,665.086C89.071,653.484 90.016,643.013 95.533,635.531C100.936,628.202 111.137,622.931 128.911,623.565C136.869,623.85 144.655,624.494 150.786,626.516C156.224,628.31 160.541,631.18 163.411,635.217C167.718,641.275 169.313,650.78 163.226,665.691C159.164,675.643 139.147,709.609 135.298,716.11ZM126.285,699.604C133.786,686.683 145.314,667.237 148.413,659.645C150.237,655.175 151.198,651.546 151.279,648.555C151.325,646.867 151.099,645.512 150.37,644.487C148.98,642.531 146.435,641.77 143.579,641.099C139.065,640.039 133.745,639.748 128.34,639.555C117.981,639.185 111.56,640.754 108.411,645.025C105.378,649.139 105.881,654.991 107.404,661.37C110.43,674.047 118.543,688.42 126.285,699.604Z" style="fill:rgb(179,69,53);"/>
        </g>
        <g transform="matrix(1.02527,0,0,0.998194,-249.656,193.002)">
            <path d="M370.323,466.116C371.316,463.534 369.592,459.449 366.45,460.446C362.471,461.71 359.461,464.174 363.746,467.622C366.566,469.892 369.496,468.266 370.323,466.116Z" style="fill:rgb(217,117,136);"/>
            <path d="M377.58,469.061L376.345,471.436L374.683,473.422L372.621,475.018L370.165,476.158L367.368,476.707L364.394,476.521L361.504,475.56L358.933,473.931L356.095,471.013L354.584,468.275L353.9,465.394L354.066,462.318L355.27,459.158L357.84,456.102C359.395,454.775 361.632,453.587 364.146,452.789L367.224,452.28L370.384,452.725L373.129,454.035L375.207,455.85L377.194,458.911L378.191,462.108L378.372,465.465L377.58,469.061ZM367.853,468.297C368.249,467.75 369.174,466.411 369.336,465.623C369.505,464.8 369.515,463.935 369.297,463.032C369.189,462.583 369.226,461.851 368.559,461.314C367.746,460.66 366.87,460.643 366.133,460.732C364.694,460.905 363.532,461.96 363.066,463.172C362.065,465.773 364.741,468.651 367.853,468.297Z" style="fill:rgb(217,117,136);"/>
        </g>
    </g>
</svg>
