<?xml version="1.0" encoding="UTF-8" standalone="no"?>
<!DOCTYPE svg PUBLIC "-//W3C//DTD SVG 1.1//EN" "http://www.w3.org/Graphics/SVG/1.1/DTD/svg11.dtd">
<svg width="100%" height="100%" viewBox="0 0 352 165" version="1.1" xmlns="http://www.w3.org/2000/svg" xmlns:xlink="http://www.w3.org/1999/xlink" xml:space="preserve" xmlns:serif="http://www.serif.com/" style="fill-rule:evenodd;clip-rule:evenodd;stroke-linejoin:round;stroke-miterlimit:2;">
    <g transform="matrix(1,0,0,1,-30,-219)">
        <g transform="matrix(0.978346,0.206978,-0.206978,0.978346,108.959,-149.358)">
            <path d="M135.175,374.802C84.751,350.538 4.238,415.608 57.364,483.49C102.904,541.681 216.16,474.143 144.314,451.392C122.632,444.526 75.886,440.79 99.213,425.794C101.323,424.438 190.163,402.296 135.175,374.802Z" style="fill:rgb(233,174,0);"/>
            <path d="M104.178,432.545C107.031,433.687 110.908,435.122 114.304,435.976C125.064,438.68 137.929,440.978 146.729,443.765C164.984,449.546 173.01,458.631 175.021,467.231C177.187,476.488 172.915,486.739 163.127,495.3C151.257,505.682 131.084,513.885 110.047,514.516C88.624,515.158 66.448,508.079 51.063,488.421C34.54,467.308 29.903,446.364 32.663,427.85C36.81,400.042 58.005,377.391 83.112,367.323C101.353,360.01 121.53,359.358 138.644,367.594C138.68,367.611 138.717,367.629 138.753,367.647C152.775,374.658 158.773,382.14 160.476,388.448C162.561,396.168 159.449,403.727 152.213,410.201C139.579,421.504 112.668,429.849 104.178,432.545ZM131.652,381.985L131.608,381.964C118.488,375.692 103.038,376.572 89.067,382.174C69.031,390.208 51.797,408.018 48.488,430.21C46.278,445.03 50.436,461.658 63.664,478.56C75.604,493.817 92.941,499.021 109.568,498.523C126.581,498.013 142.994,491.653 152.594,483.256C157.137,479.283 160.447,475.172 159.442,470.875C159.002,468.993 157.635,467.296 155.558,465.627C152.429,463.114 147.917,460.924 141.899,459.019C131.288,455.658 114.665,453.052 103.212,449.502C96.852,447.53 91.854,445.062 89.094,442.471L87.009,440.059L85.403,436.795L84.86,432.857L85.628,429.04C86.686,426.196 89.333,422.636 94.887,419.065C95.24,418.838 96.963,418.04 99.832,417.144C106.375,415.099 122.657,410.173 134.561,403.198C137.769,401.318 140.643,399.312 142.747,397.121C143.93,395.888 144.949,394.719 145.095,393.339C145.209,392.258 144.504,391.269 143.478,390.094C141.157,387.436 137.282,384.805 131.652,381.985Z" style="fill:rgb(233,174,0);"/>
        </g>
        <g transform="matrix(0.997672,0.0681885,-0.0587328,0.859326,51.6079,-70.9298)">
            <path d="M180.414,407.439C171.794,411.879 151.801,423.889 151.801,423.889L181.469,433.854C181.469,433.854 181.287,442.979 186.844,459.897C194.327,482.68 235.987,495.996 268.404,482.792C285.607,475.785 308.159,465.11 309.666,431.535C313.14,354.119 228.097,328.522 196.891,367.531C185.378,381.922 180.482,407.302 180.414,407.439Z" style="fill:rgb(237,209,126);"/>
            <path d="M173.668,400.818C175.806,392.272 181.373,373.28 191.029,361.21C205.214,343.478 229.06,336.936 252.47,341.768C286.97,348.89 319.983,380.156 317.655,432.018C315.928,470.518 290.779,483.521 271.052,491.556C249.778,500.222 224.865,498.458 206.571,490.267C192.954,484.171 183.024,474.335 179.369,463.206C176.176,453.485 174.705,446.021 174.03,441.024L149.578,432.811C146.433,431.754 144.16,428.579 143.84,424.796C143.52,421.013 145.217,417.386 148.125,415.639C148.125,415.639 163.942,406.144 173.668,400.818ZM183.658,415.929C181.046,417.274 177.373,419.326 173.541,421.522L183.692,424.932C187.18,426.104 189.551,429.855 189.467,434.069C189.467,434.069 189.502,441.923 194.319,456.588C196.651,463.69 203.638,469.045 212.328,472.935C227.486,479.722 248.128,481.208 265.755,474.028C280.439,468.047 300.391,459.71 301.677,431.052C303.519,390.014 276.968,365.692 249.669,360.057C231.878,356.385 213.533,360.376 202.752,373.852C193.485,385.435 189.183,405.074 188.336,408.956L187.332,412.102C186.486,413.795 185.2,415.134 183.658,415.929Z" style="fill:rgb(237,209,126);"/>
        </g>
        <g transform="matrix(0.703978,0.19244,-0.187154,0.723861,150.648,17.7046)">
            <path d="M217.43,303.9C212.791,318.528 228.848,314.032 230.435,313.599C231.872,313.208 250.584,301.469 256.266,305.527C261.813,309.489 246.205,326.895 248.502,334.072C256.495,359.05 280.64,326.996 262.718,334.524C257.728,336.62 252.435,328.186 256.142,324.272C262.174,317.906 278.156,315.193 278.655,298.222C279.175,280.52 222.681,287.339 217.43,303.9Z" style="fill:rgb(233,174,0);"/>
            <path d="M274.51,324.772L275.509,325.306L278.041,327.967L279.571,331.073L280.148,334.518L279.644,338.479L278.551,341.334L276.432,344.736C275.214,346.339 273.645,347.959 271.829,349.383C269.531,351.184 266.846,352.658 264.036,353.531L260.715,354.278L257.033,354.448C250.383,354.12 242.295,350.707 238.033,337.39L237.363,333.974L237.378,330.978C237.564,328.854 238.158,326.44 239.122,323.887C239.545,322.765 240.05,321.596 240.601,320.404C240.069,320.655 239.596,320.888 239.206,321.097C236.097,322.762 233.809,323.75 233.249,323.903C232.049,324.23 225.468,325.872 219.926,325L216.962,324.307L213.743,322.931L209.537,319.567L206.829,315.163L205.693,310.278C205.489,307.808 205.744,304.705 206.961,300.866C208.576,295.772 212.599,290.86 218.809,286.992C228.824,280.755 245.401,276.881 259.174,277.104C268.389,277.254 276.384,279.362 281.346,282.758L284.597,285.491L287.338,289.135L289.114,293.587L289.613,298.382C289.242,310.989 283.21,318.346 276.061,323.688C275.553,324.068 275.034,324.428 274.51,324.772ZM266.919,301.899C267.156,301.323 267.346,300.702 267.48,300.029C266.962,299.892 266.291,299.721 265.528,299.544L266.628,301.055L266.919,301.899Z" style="fill:rgb(233,174,0);"/>
        </g>
        <g transform="matrix(1.02527,0,0,0.998194,-106.101,-123.147)">
            <path d="M370.323,466.116C371.316,463.534 369.592,459.449 366.45,460.446C362.471,461.71 359.461,464.174 363.746,467.622C366.566,469.892 369.496,468.266 370.323,466.116Z" style="fill:rgb(233,174,0);"/>
            <path d="M377.58,469.061L376.345,471.436L374.683,473.422L372.621,475.018L370.165,476.158L367.368,476.707L364.394,476.521L361.504,475.56L358.933,473.931L356.095,471.013L354.584,468.275L353.9,465.394L354.066,462.318L355.27,459.158L357.84,456.102C359.395,454.775 361.632,453.587 364.146,452.789L367.224,452.28L370.384,452.725L373.129,454.035L375.207,455.85L377.194,458.911L378.191,462.108L378.372,465.465L377.58,469.061ZM367.853,468.297C368.249,467.75 369.174,466.411 369.336,465.623C369.505,464.8 369.515,463.935 369.297,463.032C369.189,462.583 369.226,461.851 368.559,461.314C367.746,460.66 366.87,460.643 366.133,460.732C364.694,460.905 363.532,461.96 363.066,463.172C362.065,465.773 364.741,468.651 367.853,468.297Z" style="fill:rgb(233,174,0);"/>
        </g>
    </g>
</svg>
