<svg width="100" height="100" viewBox="0 0 100 100" fill="none" xmlns="http://www.w3.org/2000/svg">
<path d="M41.3397 15C45.1887 8.33334 54.8113 8.33333 58.6603 15L84.641 60C88.49 66.6667 83.6788 75 75.9808 75H24.0192C16.3212 75 11.51 66.6667 15.359 60L41.3397 15Z" fill="#141414"/>
<path d="M45.6699 17.5C47.5944 14.1667 52.4056 14.1667 54.3301 17.5L80.3109 62.5C82.2354 65.8333 79.8298 70 75.9808 70H24.0192C20.1702 70 17.7646 65.8333 19.6891 62.5L45.6699 17.5Z" fill="#FFDD00"/>
<path d="M50.9867 53.0187C50.8025 54.135 49.1975 54.135 49.0133 53.0187L45.8617 33.9128C45.7612 33.3037 46.2311 32.75 46.8483 32.75H53.1517C53.7689 32.75 54.2388 33.3037 54.1383 33.9128L50.9867 53.0187Z" fill="#141414"/>
<circle cx="50" cy="60" r="3" fill="#141414"/>
</svg>
